<svg width="200" height="60" viewBox="0 0 200 60" fill="none" xmlns="http://www.w3.org/2000/svg">
  <!-- Sync Icon - Two circular arrows -->
  <path d="M35 20 L35 15 L30 20 L35 25 L35 20 M35 20 C35 16 31 12 25 12 C19 12 15 16 15 20" stroke="#1565C0" stroke-width="2.5" fill="none" stroke-linecap="round"/>
  <path d="M15 28 L15 33 L20 28 L15 23 L15 28 M15 28 C15 32 19 36 25 36 C31 36 35 32 35 28" stroke="#FF9800" stroke-width="2.5" fill="none" stroke-linecap="round"/>
  
  <!-- Byte representation - Binary dots -->
  <circle cx="25" cy="24" r="2" fill="#1565C0"/>
  <circle cx="20" cy="24" r="1.5" fill="#1565C0" opacity="0.6"/>
  <circle cx="30" cy="24" r="1.5" fill="#FF9800" opacity="0.6"/>
  
  <!-- Text: Syncbyte -->
  <text x="45" y="28" font-family="Arial, sans-serif" font-size="22" font-weight="bold" fill="#1565C0">Sync</text>
  <text x="95" y="28" font-family="Arial, sans-serif" font-size="22" font-weight="bold" fill="#424242">byte</text>
  
  <!-- Text: Security -->
  <text x="45" y="42" font-family="Arial, sans-serif" font-size="13" font-weight="500" fill="#666666">Security Solutions</text>
  
  <!-- Accent Line -->
  <line x1="45" y1="32" x2="155" y2="32" stroke="#FF9800" stroke-width="2"/>
</svg>
