<svg width="200" height="60" viewBox="0 0 200 60" fill="none" xmlns="http://www.w3.org/2000/svg">
  <!-- Shield Icon -->
  <path d="M25 8L15 12V22C15 29 19 35 25 38C31 35 35 29 35 22V12L25 8Z" fill="#1565C0"/>
  <path d="M25 8L15 12V22C15 29 19 35 25 38C31 35 35 29 35 22V12L25 8Z" stroke="#0D47A1" stroke-width="1.5"/>
  
  <!-- Fingerprint Detail -->
  <circle cx="25" cy="22" r="4" fill="white" opacity="0.3"/>
  <path d="M25 18C27.2091 18 29 19.7909 29 22C29 24.2091 27.2091 26 25 26" stroke="white" stroke-width="1.5" stroke-linecap="round" opacity="0.6"/>
  
  <!-- Text: BioMax -->
  <text x="45" y="28" font-family="Arial, sans-serif" font-size="20" font-weight="bold" fill="#1565C0">BioMax</text>
  
  <!-- Text: Security -->
  <text x="45" y="42" font-family="Arial, sans-serif" font-size="14" font-weight="500" fill="#424242">Security</text>
  
  <!-- Accent Line -->
  <line x1="45" y1="32" x2="130" y2="32" stroke="#FF9800" stroke-width="2"/>
</svg>
